# xmcd CD database file generated by OrangeCD 5.2
#
# Track frame offsets:
#	150
#	20172
#	32101
#	45615
#	61130
#	71299
#	86510
#	101748
#	114937
#	131745
#	146772
#
# Disc length: 2364 seconds
#
# Revision: 2
# Processed by: cddbd v1.5.1PL0 Copyright (c) Steve Scherf et al.
# Submitted via: OrangeCD 5.2
#
DISCID=96093a0b
DTITLE=Kristi Rose - This Is Pulp Country!
DYEAR=2000
DGENRE=Country
TTITLE0=Johnny Guitar
TTITLE1=Stop, Look and Listen
TTITLE2=All The Right Reasons
TTITLE3=Come Back Tomorrow
TTITLE4=You Break It, You Pay
TTITLE5=Theme from Pulp Country
TTITLE6=All Is Gone
TTITLE7=Rise And Shine
TTITLE8=Cry to Heaven
TTITLE9=Cheater's World
TTITLE10=Angry, No More
EXTD=
EXTT0=
EXTT1=
EXTT2=
EXTT3=
EXTT4=
EXTT5=
EXTT6=
EXTT7=
EXTT8=
EXTT9=
EXTT10=
PLAYORDER=
